<svg width="118" height="24" viewBox="0 0 118 24" fill="none" xmlns="http://www.w3.org/2000/svg">
<path d="M6.9 19.3C4.56667 19.3 2.83333 18.5167 1.7 16.95C0.583333 15.3667 0.025 13.1417 0.025 10.275C0.025 7.40833 0.583333 5.19167 1.7 3.625C2.83333 2.04167 4.56667 1.25 6.9 1.25C7.8 1.25 8.59167 1.375 9.275 1.625C9.975 1.85833 10.575 2.19167 11.075 2.625C11.575 3.05833 11.9833 3.58333 12.3 4.2C12.6333 4.81667 12.8917 5.50833 13.075 6.275L9.575 7.125C9.475 6.70833 9.35833 6.325 9.225 5.975C9.09167 5.625 8.91667 5.325 8.7 5.075C8.5 4.825 8.24167 4.63333 7.925 4.5C7.625 4.35 7.25833 4.275 6.825 4.275C5.80833 4.275 5.08333 4.675 4.65 5.475C4.23333 6.25833 4.025 7.35 4.025 8.75V11.8C4.025 13.2 4.23333 14.3 4.65 15.1C5.08333 15.8833 5.80833 16.275 6.825 16.275C7.69167 16.275 8.31667 16.0083 8.7 15.475C9.1 14.9417 9.39167 14.2583 9.575 13.425L13.075 14.275C12.8917 15.0417 12.6333 15.7333 12.3 16.35C11.9833 16.9667 11.575 17.5 11.075 17.95C10.575 18.3833 9.975 18.7167 9.275 18.95C8.59167 19.1833 7.8 19.3 6.9 19.3ZM21.4902 19.3C20.4902 19.3 19.5902 19.15 18.7902 18.85C17.9902 18.5333 17.3069 18.0833 16.7402 17.5C16.1902 16.9167 15.7652 16.2083 15.4652 15.375C15.1652 14.5417 15.0152 13.6 15.0152 12.55C15.0152 11.5 15.1652 10.5583 15.4652 9.725C15.7652 8.89167 16.1902 8.18333 16.7402 7.6C17.3069 7.01667 17.9902 6.575 18.7902 6.275C19.5902 5.95833 20.4902 5.8 21.4902 5.8C22.4902 5.8 23.3902 5.95833 24.1902 6.275C24.9902 6.575 25.6652 7.01667 26.2152 7.6C26.7819 8.18333 27.2152 8.89167 27.5152 9.725C27.8152 10.5583 27.9652 11.5 27.9652 12.55C27.9652 13.6 27.8152 14.5417 27.5152 15.375C27.2152 16.2083 26.7819 16.9167 26.2152 17.5C25.6652 18.0833 24.9902 18.5333 24.1902 18.85C23.3902 19.15 22.4902 19.3 21.4902 19.3ZM21.4902 16.55C22.3236 16.55 22.9736 16.2917 23.4402 15.775C23.9069 15.2583 24.1402 14.525 24.1402 13.575V11.525C24.1402 10.575 23.9069 9.84167 23.4402 9.325C22.9736 8.80833 22.3236 8.55 21.4902 8.55C20.6569 8.55 20.0069 8.80833 19.5402 9.325C19.0736 9.84167 18.8402 10.575 18.8402 11.525V13.575C18.8402 14.525 19.0736 15.2583 19.5402 15.775C20.0069 16.2917 20.6569 16.55 21.4902 16.55ZM29.7305 19V6.1H32.7055V8H32.8805C33.0805 7.4 33.3638 6.88333 33.7305 6.45C34.1138 6.01667 34.6471 5.8 35.3305 5.8C36.5805 5.8 37.3471 6.53333 37.6305 8H37.7805C37.8805 7.7 38.0055 7.41667 38.1555 7.15C38.3055 6.88333 38.4888 6.65 38.7055 6.45C38.9221 6.25 39.1805 6.09167 39.4805 5.975C39.7805 5.85833 40.1305 5.8 40.5305 5.8C42.3305 5.8 43.2305 7.125 43.2305 9.775V19H40.2555V10.15C40.2555 9.55 40.1471 9.13333 39.9305 8.9C39.7305 8.65 39.4638 8.525 39.1305 8.525C38.8138 8.525 38.5388 8.63333 38.3055 8.85C38.0888 9.05 37.9805 9.36667 37.9805 9.8V19H34.9805V10.15C34.9805 9.55 34.8805 9.13333 34.6805 8.9C34.4971 8.65 34.2388 8.525 33.9055 8.525C33.5721 8.525 33.2888 8.63333 33.0555 8.85C32.8221 9.05 32.7055 9.36667 32.7055 9.8V19H29.7305ZM45.4457 6.1H49.1457V8.45H49.3207C49.6374 7.68333 50.0957 7.05 50.6957 6.55C51.2957 6.05 52.1124 5.8 53.1457 5.8C53.8624 5.8 54.5124 5.93333 55.0957 6.2C55.6957 6.46667 56.204 6.875 56.6207 7.425C57.054 7.975 57.3874 8.675 57.6207 9.525C57.8707 10.375 57.9957 11.3833 57.9957 12.55C57.9957 13.7167 57.8707 14.725 57.6207 15.575C57.3874 16.425 57.054 17.125 56.6207 17.675C56.204 18.225 55.6957 18.6333 55.0957 18.9C54.5124 19.1667 53.8624 19.3 53.1457 19.3C52.1124 19.3 51.2957 19.0583 50.6957 18.575C50.0957 18.075 49.6374 17.4333 49.3207 16.65H49.1457V24H45.4457V6.1ZM51.5457 16.425C52.379 16.425 53.0207 16.175 53.4707 15.675C53.9207 15.1583 54.1457 14.45 54.1457 13.55V11.55C54.1457 10.65 53.9207 9.95 53.4707 9.45C53.0207 8.93333 52.379 8.675 51.5457 8.675C50.8957 8.675 50.329 8.83333 49.8457 9.15C49.379 9.46667 49.1457 9.96667 49.1457 10.65V14.45C49.1457 15.1333 49.379 15.6333 49.8457 15.95C50.329 16.2667 50.8957 16.425 51.5457 16.425ZM60.6609 16.125H64.6109V3.375H60.6609V0.5H68.3109V16.125H72.2609V19H60.6609V16.125ZM81.8012 19.3C79.6345 19.3 77.9928 18.7 76.8762 17.5C75.7595 16.3 75.2012 14.6667 75.2012 12.6C75.2012 11.55 75.3428 10.6083 75.6262 9.775C75.9262 8.925 76.3428 8.20833 76.8762 7.625C77.4262 7.025 78.0845 6.575 78.8512 6.275C79.6345 5.95833 80.5095 5.8 81.4762 5.8C82.4428 5.8 83.3095 5.95833 84.0762 6.275C84.8428 6.575 85.4928 7.00833 86.0262 7.575C86.5595 8.14167 86.9678 8.83333 87.2512 9.65C87.5512 10.45 87.7012 11.35 87.7012 12.35V13.45H78.8762V13.675C78.8762 14.5083 79.1345 15.1833 79.6512 15.7C80.1678 16.2 80.9262 16.45 81.9262 16.45C82.6928 16.45 83.3512 16.3083 83.9012 16.025C84.4512 15.725 84.9262 15.3333 85.3262 14.85L87.3262 17.025C86.8262 17.6417 86.1262 18.175 85.2262 18.625C84.3262 19.075 83.1845 19.3 81.8012 19.3ZM81.5012 8.45C80.7012 8.45 80.0595 8.7 79.5762 9.2C79.1095 9.68333 78.8762 10.3417 78.8762 11.175V11.375H84.0762V11.175C84.0762 10.325 83.8428 9.65833 83.3762 9.175C82.9262 8.69167 82.3012 8.45 81.5012 8.45ZM97.4414 19C96.1081 19 95.1164 18.65 94.4664 17.95C93.8164 17.25 93.4914 16.3583 93.4914 15.275V8.975H89.9914V6.1H92.2664C92.8164 6.1 93.2081 5.99167 93.4414 5.775C93.6747 5.55833 93.7914 5.15833 93.7914 4.575V1.55H97.1914V6.1H102.216V8.975H97.1914V16.125H102.216V19H97.4414ZM111.782 19.3C109.615 19.3 107.973 18.7 106.857 17.5C105.74 16.3 105.182 14.6667 105.182 12.6C105.182 11.55 105.323 10.6083 105.607 9.775C105.907 8.925 106.323 8.20833 106.857 7.625C107.407 7.025 108.065 6.575 108.832 6.275C109.615 5.95833 110.49 5.8 111.457 5.8C112.423 5.8 113.29 5.95833 114.057 6.275C114.823 6.575 115.473 7.00833 116.007 7.575C116.54 8.14167 116.948 8.83333 117.232 9.65C117.532 10.45 117.682 11.35 117.682 12.35V13.45H108.857V13.675C108.857 14.5083 109.115 15.1833 109.632 15.7C110.148 16.2 110.907 16.45 111.907 16.45C112.673 16.45 113.332 16.3083 113.882 16.025C114.432 15.725 114.907 15.3333 115.307 14.85L117.307 17.025C116.807 17.6417 116.107 18.175 115.207 18.625C114.307 19.075 113.165 19.3 111.782 19.3ZM111.482 8.45C110.682 8.45 110.04 8.7 109.557 9.2C109.09 9.68333 108.857 10.3417 108.857 11.175V11.375H114.057V11.175C114.057 10.325 113.823 9.65833 113.357 9.175C112.907 8.69167 112.282 8.45 111.482 8.45Z" fill="black"/>
</svg>
