<svg width="162" height="39" viewBox="0 0 162 39" fill="none" xmlns="http://www.w3.org/2000/svg">
<path d="M7.9 29.3C5.56667 29.3 3.83333 28.5167 2.7 26.95C1.58333 25.3667 1.025 23.1417 1.025 20.275C1.025 17.4083 1.58333 15.1917 2.7 13.625C3.83333 12.0417 5.56667 11.25 7.9 11.25C8.8 11.25 9.59167 11.375 10.275 11.625C10.975 11.8583 11.575 12.1917 12.075 12.625C12.575 13.0583 12.9833 13.5833 13.3 14.2C13.6333 14.8167 13.8917 15.5083 14.075 16.275L10.575 17.125C10.475 16.7083 10.3583 16.325 10.225 15.975C10.0917 15.625 9.91667 15.325 9.7 15.075C9.5 14.825 9.24167 14.6333 8.925 14.5C8.625 14.35 8.25833 14.275 7.825 14.275C6.80833 14.275 6.08333 14.675 5.65 15.475C5.23333 16.2583 5.025 17.35 5.025 18.75V21.8C5.025 23.2 5.23333 24.3 5.65 25.1C6.08333 25.8833 6.80833 26.275 7.825 26.275C8.69167 26.275 9.31667 26.0083 9.7 25.475C10.1 24.9417 10.3917 24.2583 10.575 23.425L14.075 24.275C13.8917 25.0417 13.6333 25.7333 13.3 26.35C12.9833 26.9667 12.575 27.5 12.075 27.95C11.575 28.3833 10.975 28.7167 10.275 28.95C9.59167 29.1833 8.8 29.3 7.9 29.3ZM22.4902 29.3C21.4902 29.3 20.5902 29.15 19.7902 28.85C18.9902 28.5333 18.3069 28.0833 17.7402 27.5C17.1902 26.9167 16.7652 26.2083 16.4652 25.375C16.1652 24.5417 16.0152 23.6 16.0152 22.55C16.0152 21.5 16.1652 20.5583 16.4652 19.725C16.7652 18.8917 17.1902 18.1833 17.7402 17.6C18.3069 17.0167 18.9902 16.575 19.7902 16.275C20.5902 15.9583 21.4902 15.8 22.4902 15.8C23.4902 15.8 24.3902 15.9583 25.1902 16.275C25.9902 16.575 26.6652 17.0167 27.2152 17.6C27.7819 18.1833 28.2152 18.8917 28.5152 19.725C28.8152 20.5583 28.9652 21.5 28.9652 22.55C28.9652 23.6 28.8152 24.5417 28.5152 25.375C28.2152 26.2083 27.7819 26.9167 27.2152 27.5C26.6652 28.0833 25.9902 28.5333 25.1902 28.85C24.3902 29.15 23.4902 29.3 22.4902 29.3ZM22.4902 26.55C23.3236 26.55 23.9736 26.2917 24.4402 25.775C24.9069 25.2583 25.1402 24.525 25.1402 23.575V21.525C25.1402 20.575 24.9069 19.8417 24.4402 19.325C23.9736 18.8083 23.3236 18.55 22.4902 18.55C21.6569 18.55 21.0069 18.8083 20.5402 19.325C20.0736 19.8417 19.8402 20.575 19.8402 21.525V23.575C19.8402 24.525 20.0736 25.2583 20.5402 25.775C21.0069 26.2917 21.6569 26.55 22.4902 26.55ZM30.7305 29V16.1H33.7055V18H33.8805C34.0805 17.4 34.3638 16.8833 34.7305 16.45C35.1138 16.0167 35.6471 15.8 36.3305 15.8C37.5805 15.8 38.3471 16.5333 38.6305 18H38.7805C38.8805 17.7 39.0055 17.4167 39.1555 17.15C39.3055 16.8833 39.4888 16.65 39.7055 16.45C39.9221 16.25 40.1805 16.0917 40.4805 15.975C40.7805 15.8583 41.1305 15.8 41.5305 15.8C43.3305 15.8 44.2305 17.125 44.2305 19.775V29H41.2555V20.15C41.2555 19.55 41.1471 19.1333 40.9305 18.9C40.7305 18.65 40.4638 18.525 40.1305 18.525C39.8138 18.525 39.5388 18.6333 39.3055 18.85C39.0888 19.05 38.9805 19.3667 38.9805 19.8V29H35.9805V20.15C35.9805 19.55 35.8805 19.1333 35.6805 18.9C35.4971 18.65 35.2388 18.525 34.9055 18.525C34.5721 18.525 34.2888 18.6333 34.0555 18.85C33.8221 19.05 33.7055 19.3667 33.7055 19.8V29H30.7305ZM46.4457 16.1H50.1457V18.45H50.3207C50.6374 17.6833 51.0957 17.05 51.6957 16.55C52.2957 16.05 53.1124 15.8 54.1457 15.8C54.8624 15.8 55.5124 15.9333 56.0957 16.2C56.6957 16.4667 57.204 16.875 57.6207 17.425C58.054 17.975 58.3874 18.675 58.6207 19.525C58.8707 20.375 58.9957 21.3833 58.9957 22.55C58.9957 23.7167 58.8707 24.725 58.6207 25.575C58.3874 26.425 58.054 27.125 57.6207 27.675C57.204 28.225 56.6957 28.6333 56.0957 28.9C55.5124 29.1667 54.8624 29.3 54.1457 29.3C53.1124 29.3 52.2957 29.0583 51.6957 28.575C51.0957 28.075 50.6374 27.4333 50.3207 26.65H50.1457V34H46.4457V16.1ZM52.5457 26.425C53.379 26.425 54.0207 26.175 54.4707 25.675C54.9207 25.1583 55.1457 24.45 55.1457 23.55V21.55C55.1457 20.65 54.9207 19.95 54.4707 19.45C54.0207 18.9333 53.379 18.675 52.5457 18.675C51.8957 18.675 51.329 18.8333 50.8457 19.15C50.379 19.4667 50.1457 19.9667 50.1457 20.65V24.45C50.1457 25.1333 50.379 25.6333 50.8457 25.95C51.329 26.2667 51.8957 26.425 52.5457 26.425ZM61.6609 26.125H65.6109V13.375H61.6609V10.5H69.3109V26.125H73.2609V29H61.6609V26.125ZM82.8012 29.3C80.6345 29.3 78.9928 28.7 77.8762 27.5C76.7595 26.3 76.2012 24.6667 76.2012 22.6C76.2012 21.55 76.3428 20.6083 76.6262 19.775C76.9262 18.925 77.3428 18.2083 77.8762 17.625C78.4262 17.025 79.0845 16.575 79.8512 16.275C80.6345 15.9583 81.5095 15.8 82.4762 15.8C83.4428 15.8 84.3095 15.9583 85.0762 16.275C85.8428 16.575 86.4928 17.0083 87.0262 17.575C87.5595 18.1417 87.9678 18.8333 88.2512 19.65C88.5512 20.45 88.7012 21.35 88.7012 22.35V23.45H79.8762V23.675C79.8762 24.5083 80.1345 25.1833 80.6512 25.7C81.1678 26.2 81.9262 26.45 82.9262 26.45C83.6928 26.45 84.3512 26.3083 84.9012 26.025C85.4512 25.725 85.9262 25.3333 86.3262 24.85L88.3262 27.025C87.8262 27.6417 87.1262 28.175 86.2262 28.625C85.3262 29.075 84.1845 29.3 82.8012 29.3ZM82.5012 18.45C81.7012 18.45 81.0595 18.7 80.5762 19.2C80.1095 19.6833 79.8762 20.3417 79.8762 21.175V21.375H85.0762V21.175C85.0762 20.325 84.8428 19.6583 84.3762 19.175C83.9262 18.6917 83.3012 18.45 82.5012 18.45ZM98.4414 29C97.1081 29 96.1164 28.65 95.4664 27.95C94.8164 27.25 94.4914 26.3583 94.4914 25.275V18.975H90.9914V16.1H93.2664C93.8164 16.1 94.2081 15.9917 94.4414 15.775C94.6747 15.5583 94.7914 15.1583 94.7914 14.575V11.55H98.1914V16.1H103.216V18.975H98.1914V26.125H103.216V29H98.4414ZM112.782 29.3C110.615 29.3 108.973 28.7 107.857 27.5C106.74 26.3 106.182 24.6667 106.182 22.6C106.182 21.55 106.323 20.6083 106.607 19.775C106.907 18.925 107.323 18.2083 107.857 17.625C108.407 17.025 109.065 16.575 109.832 16.275C110.615 15.9583 111.49 15.8 112.457 15.8C113.423 15.8 114.29 15.9583 115.057 16.275C115.823 16.575 116.473 17.0083 117.007 17.575C117.54 18.1417 117.948 18.8333 118.232 19.65C118.532 20.45 118.682 21.35 118.682 22.35V23.45H109.857V23.675C109.857 24.5083 110.115 25.1833 110.632 25.7C111.148 26.2 111.907 26.45 112.907 26.45C113.673 26.45 114.332 26.3083 114.882 26.025C115.432 25.725 115.907 25.3333 116.307 24.85L118.307 27.025C117.807 27.6417 117.107 28.175 116.207 28.625C115.307 29.075 114.165 29.3 112.782 29.3ZM112.482 18.45C111.682 18.45 111.04 18.7 110.557 19.2C110.09 19.6833 109.857 20.3417 109.857 21.175V21.375H115.057V21.175C115.057 20.325 114.823 19.6583 114.357 19.175C113.907 18.6917 113.282 18.45 112.482 18.45Z" fill="black"/>
<circle cx="142.5" cy="19.5" r="19.5" fill="#43B02A"/>
<path d="M138.383 27.332C134.887 27.332 132.777 25.2227 132.777 22.1562V12.9082H134.535V22.0391C134.535 24.207 135.941 25.7109 138.383 25.7109C140.824 25.7109 142.211 24.207 142.211 22.0391V12.9082H143.969V22.1562C143.969 25.2227 141.879 27.332 138.383 27.332ZM147.543 27V12.9082H149.301V27H147.543Z" fill="white"/>
</svg>
